<svg width="720" height="360" viewBox="0 0 720 360" fill="none" xmlns="http://www.w3.org/2000/svg">
<g clip-path="url(#clip0_1:940)">
<path opacity="0.5" d="M768.794 429.765C867.224 429.765 947.018 349.971 947.018 251.541C947.018 153.11 867.224 73.3168 768.794 73.3168C670.363 73.3168 590.57 153.11 590.57 251.541C590.57 349.971 670.363 429.765 768.794 429.765Z" fill="white" fill-opacity="0.15"/>
<path opacity="0.5" d="M404.426 655.259C502.856 655.259 582.65 575.466 582.65 477.035C582.65 378.605 502.856 298.811 404.426 298.811C305.995 298.811 226.202 378.605 226.202 477.035C226.202 575.466 305.995 655.259 404.426 655.259Z" stroke="#23E9B4" stroke-width="2" stroke-miterlimit="10" stroke-linecap="round" stroke-dasharray="4 8 12 16"/>
<path opacity="0.5" d="M743 103C793.258 103 834 62.2579 834 12C834 -38.2579 793.258 -79 743 -79C692.742 -79 652 -38.2579 652 12C652 62.2579 692.742 103 743 103Z" stroke="#23E9B4" stroke-width="2" stroke-miterlimit="10" stroke-linecap="round" stroke-dasharray="4 8 12 16"/>
<path opacity="0.5" d="M449.373 117.755C473.91 117.755 493.801 97.8637 493.801 73.3264C493.801 48.789 473.91 28.8976 449.373 28.8976C424.835 28.8976 404.944 48.789 404.944 73.3264C404.944 97.8637 424.835 117.755 449.373 117.755Z" fill="white" fill-opacity="0.15"/>
<path opacity="0.5" d="M165.001 349.576C173.527 349.576 180.438 342.665 180.438 334.139C180.438 325.614 173.527 318.702 165.001 318.702C156.476 318.702 149.565 325.614 149.565 334.139C149.565 342.665 156.476 349.576 165.001 349.576Z" fill="white" fill-opacity="0.15"/>
<path opacity="0.5" d="M601.811 539.627C668.308 539.627 722.214 485.721 722.214 419.224C722.214 352.727 668.308 298.821 601.811 298.821C535.314 298.821 481.408 352.727 481.408 419.224C481.408 485.721 535.314 539.627 601.811 539.627Z" fill="white" fill-opacity="0.15"/>
<path opacity="0.5" d="M2.224 334.139C100.654 334.139 180.448 254.346 180.448 155.915C180.448 57.4848 100.654 -22.3088 2.224 -22.3088C-96.2064 -22.3088 -176 57.4848 -176 155.915C-176 254.346 -96.2064 334.139 2.224 334.139Z" fill="white" fill-opacity="0.15"/>
<path opacity="0.5" d="M2.224 59.6272C68.7208 59.6272 122.627 5.72084 122.627 -60.776C122.627 -127.273 68.7208 -181.179 2.224 -181.179C-64.2729 -181.179 -118.179 -127.273 -118.179 -60.776C-118.179 5.72084 -64.2729 59.6272 2.224 59.6272Z" fill="white" fill-opacity="0.15"/>
<path opacity="0.49" d="M160.609 2.61044C162.99 2.61044 164.921 0.808302 164.921 -1.41475C164.921 -3.6378 162.99 -5.43994 160.609 -5.43994C158.228 -5.43994 156.297 -3.6378 156.297 -1.41475C156.297 0.808302 158.228 2.61044 160.609 2.61044Z" stroke="#23E9B4" stroke-width="2" stroke-miterlimit="10" stroke-linecap="round" stroke-linejoin="round"/>
<path opacity="0.49" d="M455.599 271.904C455.599 274.123 453.665 275.929 451.288 275.929C448.91 275.929 446.976 274.123 446.976 271.904C446.976 269.684 448.91 267.878 451.288 267.878C453.665 267.878 455.599 269.684 455.599 271.904Z" stroke="#23E9B4" stroke-width="2" stroke-miterlimit="10" stroke-linecap="round" stroke-linejoin="round"/>
<path opacity="0.49" d="M320.775 73.0414C320.775 75.2612 318.841 77.0666 316.463 77.0666C314.086 77.0666 312.152 75.2612 312.152 73.0414C312.152 70.8216 314.086 69.0162 316.463 69.0162C318.852 69.0162 320.775 70.8117 320.775 73.0414Z" stroke="#23E9B4" stroke-width="2" stroke-miterlimit="10" stroke-linecap="round" stroke-linejoin="round"/>
<path opacity="0.49" d="M17.7322 204.186C17.7322 206.405 15.7983 208.211 13.4206 208.211C11.0428 208.211 9.10889 206.405 9.10889 204.186C9.10889 201.966 11.0428 200.16 13.4206 200.16C15.8089 200.16 17.7322 201.966 17.7322 204.186Z" stroke="#23E9B4" stroke-width="2" stroke-miterlimit="10" stroke-linecap="round" stroke-linejoin="round"/>
<path opacity="0.49" d="M61.3772 86.2318C61.3772 88.4516 59.4434 90.257 57.0656 90.257C54.6878 90.257 52.7539 88.4516 52.7539 86.2318C52.7539 84.0121 54.6878 82.2067 57.0656 82.2067C59.4434 82.2067 61.3772 84.0121 61.3772 86.2318Z" stroke="#23E9B4" stroke-width="2" stroke-miterlimit="10" stroke-linecap="round" stroke-linejoin="round"/>
<path opacity="0.49" d="M401.26 33.0657V40.1098" stroke="#23E9B4" stroke-width="2" stroke-miterlimit="10" stroke-linecap="round" stroke-linejoin="round"/>
<path opacity="0.49" d="M405.032 36.5878H397.497" stroke="#23E9B4" stroke-width="2" stroke-miterlimit="10" stroke-linecap="round" stroke-linejoin="round"/>
<g opacity="0.49">
<path opacity="0.49" d="M186.469 204.659V211.693" stroke="#23E9B4" stroke-width="2" stroke-miterlimit="10" stroke-linecap="round" stroke-linejoin="round"/>
<path opacity="0.49" d="M190.241 208.171H182.707" stroke="#23E9B4" stroke-width="2" stroke-miterlimit="10" stroke-linecap="round" stroke-linejoin="round"/>
</g>
<path opacity="0.49" d="M61.3777 330V337.034" stroke="#23E9B4" stroke-width="2" stroke-miterlimit="10" stroke-linecap="round" stroke-linejoin="round"/>
<path opacity="0.49" d="M65.1396 333.522H57.6047" stroke="#23E9B4" stroke-width="2" stroke-miterlimit="10" stroke-linecap="round" stroke-linejoin="round"/>
<path opacity="0.49" d="M38.5933 330V337.034" stroke="#23E9B4" stroke-width="2" stroke-miterlimit="10" stroke-linecap="round" stroke-linejoin="round"/>
<path opacity="0.49" d="M42.366 333.522H34.8206" stroke="#23E9B4" stroke-width="2" stroke-miterlimit="10" stroke-linecap="round" stroke-linejoin="round"/>
<path opacity="0.49" d="M15.8091 330V337.034" stroke="#23E9B4" stroke-width="2" stroke-miterlimit="10" stroke-linecap="round" stroke-linejoin="round"/>
<path opacity="0.49" d="M19.5817 333.522H12.0469" stroke="#23E9B4" stroke-width="2" stroke-miterlimit="10" stroke-linecap="round" stroke-linejoin="round"/>
<path opacity="0.49" d="M276.073 184.316L281.938 174.835H270.208L276.073 184.316Z" stroke="#23E9B4" stroke-width="2" stroke-miterlimit="10" stroke-linecap="round" stroke-linejoin="round"/>
<path opacity="0.49" d="M550.865 147L545 156.481H556.73L550.865 147Z" stroke="#23E9B4" stroke-width="2" stroke-miterlimit="10" stroke-linecap="round" stroke-linejoin="round"/>
<path opacity="0.49" d="M190 313.425C192.557 311.038 197.038 315.221 199.596 312.833C202.153 310.446 197.672 306.263 200.23 303.875C202.787 301.488 207.268 305.671 209.825 303.283C212.383 300.896 207.902 296.713 210.449 294.325C213.006 291.938 217.487 296.121 220.044 293.733C222.602 291.346 218.121 287.163 220.678 284.765C223.236 282.378 227.717 286.561 230.285 284.173" stroke="#23E9B4" stroke-width="2" stroke-miterlimit="10" stroke-linecap="round" stroke-linejoin="round"/>
<path opacity="0.49" d="M525 256.425C527.557 254.038 532.038 258.221 534.596 255.833C537.153 253.446 532.672 249.263 535.23 246.875C537.787 244.488 542.268 248.671 544.825 246.283C547.383 243.896 542.902 239.713 545.449 237.325C548.006 234.938 552.487 239.121 555.044 236.733C557.602 234.346 553.121 230.163 555.678 227.765C558.236 225.378 562.717 229.561 565.285 227.173" stroke="#23E9B4" stroke-width="2" stroke-miterlimit="10" stroke-linecap="round" stroke-linejoin="round"/>
<path opacity="0.49" d="M513 102.425C515.557 100.038 520.038 104.221 522.596 101.833C525.153 99.4456 520.672 95.2626 523.23 92.8751C525.787 90.4876 530.268 94.6706 532.825 92.2831C535.383 89.8956 530.902 85.7126 533.449 83.3251C536.006 80.9376 540.487 85.1207 543.044 82.7332C545.602 80.3457 541.121 76.1626 543.678 73.7653C546.236 71.3778 550.717 75.5608 553.285 73.1733" stroke="#23E9B4" stroke-width="2" stroke-miterlimit="10" stroke-linecap="round" stroke-linejoin="round"/>
</g>
<defs>
<clipPath id="clip0_1:940">
<rect width="720" height="360" fill="white"/>
</clipPath>
</defs>
</svg>
