<svg width="1440" height="288" viewBox="0 0 1440 288" fill="none" xmlns="http://www.w3.org/2000/svg">
<path d="M0 128L80 117.3C160 107 320 85.0002 480 112C640 139 800 213 960 234.7C1120 256 1280 224 1360 208L1440 192V320H1360C1280 320 1120 320 960 320C800 320 640 320 480 320C320 320 160 320 80 320H0V128Z" fill="#193296" fill-opacity="0.3"/>
<path d="M0 256L80 234.7C160 213 320 171 480 170.7C640 171 800 213 960 208C1120 203 1280 149 1360 122.7L1440 96V288H1360C1280 288 1120 288 960 288C800 288 640 288 480 288C320 288 160 288 80 288H0V256Z" fill="#320064" fill-opacity="0.3"/>
</svg>
